<?xml version="1.0" encoding="UTF-8" standalone="no"?>
<svg
   data-name="Layer 1"
   width="862.70323"
   height="644.78592"
   viewBox="0 0 862.70323 644.78592"
   version="1.1"
   id="svg122"
   sodipodi:docname="box_empty.svg"
   inkscape:version="1.1 (c68e22c387, 2021-05-23)"
   inkscape:export-filename="C:\Github\achapeca_flutter\assets\box_empty.png"
   inkscape:export-xdpi="150"
   inkscape:export-ydpi="150"
   xmlns:inkscape="http://www.inkscape.org/namespaces/inkscape"
   xmlns:sodipodi="http://sodipodi.sourceforge.net/DTD/sodipodi-0.dtd"
   xmlns="http://www.w3.org/2000/svg"
   xmlns:svg="http://www.w3.org/2000/svg">
  <defs
     id="defs126">
    <linearGradient
       id="linearGradient5044"
       inkscape:swatch="solid">
      <stop
         style="stop-color:#aa6545;stop-opacity:1;"
         offset="0"
         id="stop5042" />
    </linearGradient>
  </defs>
  <sodipodi:namedview
     id="namedview124"
     pagecolor="#ffffff"
     bordercolor="#666666"
     borderopacity="1.0"
     inkscape:pageshadow="2"
     inkscape:pageopacity="0.0"
     inkscape:pagecheckerboard="0"
     showgrid="false"
     inkscape:zoom="1.807285"
     inkscape:rotation="-2"
     inkscape:cx="430.99187"
     inkscape:cy="294.0919"
     inkscape:window-width="1278"
     inkscape:window-height="1000"
     inkscape:window-x="1266"
     inkscape:window-y="0"
     inkscape:window-maximized="0"
     inkscape:current-layer="svg122" />
  <path
     d="M674.01238,342.14754a7.1328,7.1328,0,0,0-4.80706-7.85363l-98.41317-32.77709a7.13219,7.13219,0,0,0-2.933-.3368l-24.66687,2.33267-14.15377,1.34255-26.11867,2.46833a7.15519,7.15519,0,0,0-6.38357,5.98973l-13.26135,82.8376a7.18646,7.18646,0,0,0,4.48439,7.79592l99.4404,38.38442a6.94669,6.94669,0,0,0,1.44636.38836,7.13621,7.13621,0,0,0,2.17571.01648l64.25546-9.52349a7.12057,7.12057,0,0,0,6.023-5.99919Z"
     transform="translate(-168.64838 -127.60704)"
     fill="#fff"
     id="path76" />
  <path
     d="M490.01349,398.1102l99.44009,38.38234a.89711.89711,0,0,0,.457.05366l64.247-9.52224a.88347.88347,0,0,0,.7549-.75161l12.91979-85.06677a.90469.90469,0,0,0-.59937-.98151l-.66169-.22392-97.75762-32.54588a.67787.67787,0,0,0-.13742-.03318.88732.88732,0,0,0-.23-.01192l-60.16426,5.6932-4.77428.44794a.90314.90314,0,0,0-.7947.74781l-13.259,82.83439A.89735.89735,0,0,0,490.01349,398.1102Z"
     transform="translate(-168.64838 -127.60704)"
     fill="#6c63ff"
     id="path78"
     style="fill:#ff6d2e;fill-opacity:1" />
  <path
     d="M508.28194,313.10237l60.16426-5.6932a.88732.88732,0,0,1,.23.01192.67787.67787,0,0,1,.13742.03318l97.75762,32.54588-25.78658,2.72965-9.65046,1.01669-27.46045,2.90123a1.939,1.939,0,0,1-.24081-.0029c-.04881-.01472-.09762-.02944-.15639-.04511Z"
     transform="translate(-168.64838 -127.60704)"
     fill="#2f2e41"
     id="path80"
     style="fill:#ffccaa;fill-opacity:0.69999999" />
  <path
     d="M487.75761,403.95209l99.44009,38.38233a6.72242,6.72242,0,0,0,1.4505.37968,7.22358,7.22358,0,0,0,2.17727.02722l64.247-9.52224a7.13521,7.13521,0,0,0,6.02839-6.00387l12.90982-85.06772a7.19014,7.19014,0,0,0-.4184-3.71669c-.06533-.15688-.13072-.31384-.207-.46172a6.99031,6.99031,0,0,0-2.26369-2.69758,7.13789,7.13789,0,0,0-1.91579-.97662l-.11659-.04131-98.29175-32.73751a8.95539,8.95539,0,0,0-1.22721-.29807,7.08573,7.08573,0,0,0-1.71463-.03323l-24.66295,2.32468-14.15253,1.35L502.917,307.3259a7.09173,7.09173,0,0,0-3.01853.99744,1.32948,1.32948,0,0,0-.20245.12125,1.1922,1.1922,0,0,0-.12992.09813,7.14818,7.14818,0,0,0-3.02682,4.76367l-13.2699,82.84346A7.19418,7.19418,0,0,0,487.75761,403.95209Zm10.54219-90.35694a5.29965,5.29965,0,0,1,1.26984-2.6713,4.65147,4.65147,0,0,1,.67571-.65875,5.31719,5.31719,0,0,1,2.32365-1.08389,4.059,4.059,0,0,1,.50915-.07189l43.98466-4.15521,20.96479-1.995c.14217-.01658.27254-.01418.40386-.02168a5.00673,5.00673,0,0,1,.94761.07043,4.14489,4.14489,0,0,1,.84467.20125l98.4084,32.77882c.07775.02754.14554.05407.22323.0816a5.218,5.218,0,0,1,2.27305,1.6537,5.25912,5.25912,0,0,1,1.12074,4.14541l-12.92068,85.07674a5.34916,5.34916,0,0,1-4.5086,4.50155l-64.257,9.52134a5.41346,5.41346,0,0,1-2.72281-.31038l-99.441-38.37237a5.40237,5.40237,0,0,1-3.35921-5.846Z"
     transform="translate(-168.64838 -127.60704)"
     fill="#3f3d56"
     id="path82"
     style="fill:#321e14;fill-opacity:1" />
  <path
     d="M499.35216,308.99439a.87724.87724,0,0,1,.268-.38623,1.05132,1.05132,0,0,1,.129-.08817c.04169-.01607.08434-.04216.12611-.05828a.87349.87349,0,0,1,.62383-.01066l2.06994.73016,101.1157,35.66943,23.66513-2.5004,13.24288-1.39675,28.02932-2.96742,2.50639-.26279.48732-.05387a.9043.9043,0,0,1,.95216.65352.73938.73938,0,0,1,.02649.14313.893.893,0,0,1-.55014.92188.98843.98843,0,0,1-.24752.06673l-3.40944.35738-27.60268,2.91775-9.65046,1.01669-27.46045,2.90123a1.939,1.939,0,0,1-.24081-.0029c-.04881-.01472-.09762-.02944-.15639-.04511L500.24535,310.2651l-.3498-.1238a.67025.67025,0,0,1-.21942-.12146A.91016.91016,0,0,1,499.35216,308.99439Z"
     transform="translate(-168.64838 -127.60704)"
     fill="#3f3d56"
     id="path84" />
  <path
     d="M588.91905,442.97456a.89376.89376,0,0,1-.74251-1.01574l14.51687-96.33414a.894.894,0,0,1,1.017-.75056l.008.00129a.89377.89377,0,0,1,.74252,1.01574l-14.51687,96.33414a.894.894,0,0,1-1.017.75055Z"
     transform="translate(-168.64838 -127.60704)"
     fill="#3f3d56"
     id="path86" />
  <path
     d="M625.716,436.86342l-9.6548,1.01888,11.29337-95.5347s12.89458-2.33464,13.23951-1.39846C640.80631,341.50808,625.80805,436.25066,625.716,436.86342Z"
     transform="translate(-168.64838 -127.60704)"
     fill="#3f3d56"
     id="path88"
     style="fill:#321e14;fill-opacity:1" />
  <polygon
     points="331.25 182.533 330.99 226.1 408.116 255.488 435.813 218.284 331.25 182.533"
     fill="#3f3d56"
     id="polygon90"
     style="fill:#d45500;fill-opacity:1" />
  <path
     d="M671.13144,337.72465a5.30105,5.30105,0,0,0-2.49688-1.73654l-98.40594-32.7777a5.10582,5.10582,0,0,0-.848-.20665,5.00894,5.00894,0,0,0-.95065-.07115l.15966-.99731.98511-.71323,23.36822-16.9188,78.04053,23.91705.13549,27.05154Z"
     transform="translate(-168.64838 -127.60704)"
     fill="#3f3d56"
     id="path92"
     style="fill:#d45500;fill-opacity:1;opacity:1" />
  <path
     d="M599.36147,299.184"
     transform="translate(-168.64838 -127.60704)"
     fill="#6c63ff"
     id="path112" />
</svg>
