<?xml version="1.0" encoding="UTF-8"?>
<svg width="282" height="216" version="1.1" viewBox="0 0 282 216" xmlns="http://www.w3.org/2000/svg">
 <path d="m165.05 90.756c-0.01-1.5468-0.567-3.0402-1.574-4.2152-1.006-1.1751-2.396-1.956-3.923-2.2042l-93.956-15.425c-0.901-0.1491-1.8232-0.1082-2.7073 0.1203l-22.019 5.6921-12.634 3.2697-23.315 6.0257c-1.4075 0.3655-2.6538 1.1876-3.5436 2.3374-0.88982 1.1499-1.3728 2.5625-1.3732 4.0163v76.988c0.0070088 1.501 0.52564 2.954 1.4703 4.12 0.94464 1.166 2.2588 1.975 3.7255 2.294l95.701 20.357c0.449 0.097 0.908 0.144 1.367 0.142 0.67 2e-3 1.336-0.1 1.975-0.3l56.858-17.952c1.342-0.418 2.513-1.258 3.34-2.395 0.826-1.137 1.264-2.509 1.249-3.915l-0.64-78.956z" fill="#fff"/>
 <path d="m64.528 74.565c-0.0686 0-0.1369 0.0088-0.2032 0.0262l-57.969 14.988c-0.17574 0.0455-0.33143 0.1481-0.44255 0.2916-0.11113 0.1435-0.17142 0.3198-0.17144 0.5013v76.987c6.8e-4 0.187 0.06536 0.369 0.18331 0.515 0.11796 0.145 0.28211 0.247 0.46536 0.286l95.701 20.357c0.139 0.029 0.282 0.022 0.418-0.02l56.859-17.951c0.168-0.052 0.314-0.157 0.417-0.299s0.157-0.314 0.155-0.489l-0.637-78.956c-1e-3 -0.1932-0.071-0.3796-0.197-0.5263s-0.299-0.2442-0.49-0.2752l-93.956-15.424c-0.0438-7e-3 -0.0881-0.0106-0.1324-0.0107z" fill="#F9F6F4"/>
 <g fill="#F2E1D9">
  <path d="m165.05 90.756c-0.01-1.5468-0.567-3.0402-1.574-4.2152-1.006-1.1751-2.396-1.956-3.923-2.2042l-93.956-15.425c-0.901-0.1491-1.8232-0.1082-2.7073 0.1203l-22.019 5.6921-12.634 3.2697-23.315 6.0257c-1.4075 0.3655-2.6538 1.1876-3.5436 2.3374-0.88982 1.1499-1.3728 2.5625-1.3732 4.0163v76.988c0.0070088 1.501 0.52564 2.954 1.4703 4.12 0.94464 1.166 2.2588 1.975 3.7255 2.294l95.701 20.357c0.449 0.097 0.908 0.144 1.367 0.142 0.67 2e-3 1.336-0.1 1.975-0.3l56.858-17.952c1.342-0.418 2.513-1.258 3.34-2.395 0.826-1.137 1.264-2.509 1.249-3.915l-0.64-78.956zm-4.441 83.703-56.859 17.951c-0.811 0.252-1.673 0.294-2.504 0.12l-95.707-20.357c-1.0997-0.24-2.0847-0.847-2.7927-1.722-0.70795-0.875-1.0965-1.965-1.1014-3.09v-76.988c7.2e-4 -1.0076 0.31046-1.9908 0.88745-2.817 0.577-0.8262 1.3935-1.4556 2.3394-1.8035 0.15021-0.0563 0.30362-0.1038 0.45941-0.1421l24.666-6.3756 14.586-3.7728 18.716-4.8391c0.4014-0.1071 0.8152-0.1605 1.2307-0.1586 0.2675-1e-4 0.5345 0.0218 0.7984 0.0656l93.956 15.425c0.756 0.124 1.473 0.4223 2.094 0.8712s1.129 1.0361 1.483 1.7152c0.355 0.6884 0.543 1.4509 0.547 2.2254l0.64 78.956c0.012 1.055-0.316 2.084-0.936 2.937s-1.498 1.484-2.504 1.799z"/>
  <path d="m162.86 88.541c-0.064 0.0419-0.134 0.0733-0.208 0.0929l-27.636 7.4692-33.073 8.9347c-0.07 0.017-0.141 0.026-0.213 0.027-0.049-1e-3 -0.099-4e-3 -0.148-0.011l-98.665-17.984-0.32814-0.0602c-0.21389-0.04-0.40323-0.163-0.52659-0.3422s-0.17072-0.4-0.13166-0.614 0.16131-0.4039 0.34002-0.528 0.39936-0.1724 0.6136-0.1343l1.9853 0.3609 96.828 17.65 21.09-5.6976 11.797-3.1879 27.209-7.3543 0.432-0.1148c0.187-0.0492 0.385-0.0313 0.56 0.0506 0.175 0.082 0.316 0.2227 0.398 0.3977 0.021 0.0418 0.037 0.0859 0.049 0.1313 0.045 0.1719 0.033 0.3538-0.034 0.5185-0.067 0.1646-0.186 0.3031-0.338 0.3947z"/>
  <path d="m102.55 194.46c-0.216 0-0.424-0.085-0.577-0.237-0.154-0.152-0.241-0.359-0.243-0.575l-0.821-89.401c-2e-3 -0.217 0.083-0.427 0.235-0.582 0.153-0.155 0.361-0.243 0.578-0.245h8e-3c0.216 0 0.423 0.085 0.577 0.237s0.241 0.359 0.243 0.575l0.82 89.401c2e-3 0.217-0.082 0.427-0.235 0.582-0.152 0.155-0.36 0.243-0.578 0.245h-7e-3z"/>
  <path d="m135.01 183.59-8.603 2.324-3.626-88.208-92.523-18.405c-0.0906-0.016-0.1802-0.0379-0.268-0.0656-0.7107-0.2023-1.3317-0.64-1.7612-1.2412l12.634-3.2698 3.7137 0.7382 87.793 17.459c0.461 0.0911 0.898 0.281 1.279 0.5566 0.382 0.2755 0.699 0.6303 0.93 1.04 0.274 0.4757 0.427 88.504 0.432 89.072z"/>
 </g>
 <path d="m39.013 144.91c-0.1023 0-0.2042-0.011-0.3039-0.034l-28.456-6.424c-0.35583-0.081-0.66506-0.299-0.85977-0.608-0.19471-0.308-0.25901-0.681-0.17872-1.037s0.2986-0.666 0.60693-0.861c0.30836-0.195 0.68146-0.26 1.0376-0.18l28.456 6.424c0.3304 0.075 0.6217 0.269 0.8182 0.544 0.1965 0.276 0.2845 0.615 0.2471 0.951-0.0374 0.337-0.1975 0.648-0.4498 0.874-0.2522 0.226-0.5788 0.351-0.9175 0.351z" fill="#fff"/>
 <path d="m281.02 112.29c-9e-3 -1.547-0.567-3.04-1.573-4.215s-2.396-1.956-3.923-2.204l-93.957-15.425c-0.901-0.1491-1.823-0.1081-2.707 0.1203l-22.019 5.6921-12.634 3.2698-23.316 6.026c-1.407 0.365-2.653 1.187-3.543 2.337s-1.373 2.563-1.374 4.016v76.989c8e-3 1.5 0.526 2.953 1.471 4.12 0.944 1.166 2.259 1.975 3.725 2.293l95.701 20.358c0.45 0.096 0.908 0.144 1.368 0.142 0.669 1e-3 1.335-0.1 1.974-0.301l56.859-17.951c1.341-0.419 2.513-1.259 3.339-2.395 0.827-1.137 1.265-2.51 1.249-3.915l-0.64-78.957z" fill="#fff"/>
 <path d="m180.51 96.099c-0.069-1e-4 -0.137 0.0087-0.203 0.0262l-57.969 14.987c-0.176 0.046-0.332 0.148-0.443 0.292-0.111 0.143-0.171 0.32-0.171 0.501v76.987c0 0.188 0.065 0.369 0.183 0.515s0.282 0.247 0.465 0.287l95.701 20.357c0.139 0.029 0.283 0.022 0.418-0.021l56.86-17.95c0.167-0.053 0.313-0.158 0.416-0.3s0.158-0.313 0.156-0.489l-0.638-78.956c-1e-3 -0.193-0.071-0.38-0.196-0.526-0.126-0.147-0.3-0.244-0.49-0.275l-93.957-15.425c-0.043-7e-3 -0.088-0.0105-0.132-0.0106z" fill="#F2E1D9"/>
 <g fill="#331E14">
  <path d="m281.02 112.29c-9e-3 -1.547-0.567-3.04-1.573-4.215s-2.396-1.956-3.923-2.204l-93.957-15.425c-0.901-0.1491-1.823-0.1081-2.707 0.1203l-22.019 5.6921-12.634 3.2698-23.316 6.026c-1.407 0.365-2.653 1.187-3.543 2.337s-1.373 2.563-1.374 4.016v76.989c8e-3 1.5 0.526 2.953 1.471 4.12 0.944 1.166 2.259 1.975 3.725 2.293l95.701 20.358c0.45 0.096 0.908 0.144 1.368 0.142 0.669 1e-3 1.335-0.1 1.974-0.301l56.859-17.951c1.341-0.419 2.513-1.259 3.339-2.395 0.827-1.137 1.265-2.51 1.249-3.915l-0.64-78.957zm-4.441 83.703-56.858 17.951c-0.811 0.253-1.673 0.294-2.505 0.12l-95.707-20.357c-1.099-0.239-2.084-0.847-2.792-1.721-0.708-0.875-1.097-1.965-1.102-3.09v-76.989c1e-3 -1.007 0.311-1.99 0.888-2.817 0.577-0.826 1.393-1.455 2.339-1.803 0.15-0.056 0.304-0.104 0.46-0.142l24.666-6.376 14.586-3.7726 18.716-4.8391c0.402-0.1071 0.815-0.1605 1.231-0.1586 0.267-1e-4 0.534 0.0218 0.798 0.0656l93.957 15.425c0.756 0.124 1.473 0.423 2.093 0.872 0.621 0.448 1.129 1.036 1.484 1.715 0.355 0.688 0.542 1.451 0.547 2.225l0.64 78.957c0.011 1.054-0.317 2.084-0.937 2.937-0.619 0.853-1.497 1.483-2.504 1.798z"/>
  <path d="m278.84 110.08c-0.063 0.042-0.134 0.073-0.207 0.093l-27.637 7.469-33.072 8.934c-0.07 0.017-0.142 0.027-0.214 0.028-0.049-1e-3 -0.098-5e-3 -0.147-0.011l-98.666-17.984-0.328-0.06c-0.214-0.04-0.403-0.164-0.526-0.343-0.124-0.179-0.171-0.4-0.132-0.614s0.161-0.404 0.34-0.528 0.399-0.172 0.614-0.134l1.985 0.361 96.828 17.65 21.089-5.697 39.007-10.542 0.432-0.115c0.187-0.049 0.385-0.031 0.56 0.05 0.175 0.082 0.315 0.223 0.397 0.398 0.021 0.042 0.038 0.086 0.049 0.131 0.045 0.172 0.034 0.354-0.034 0.519-0.067 0.165-0.185 0.303-0.338 0.395z"/>
  <path d="m218.53 216c-0.217 0-0.424-0.086-0.578-0.238s-0.241-0.359-0.243-0.575l-0.82-89.4c-2e-3 -0.218 0.082-0.427 0.235-0.582 0.152-0.156 0.36-0.244 0.578-0.246h7e-3c0.216 0 0.424 0.085 0.578 0.238 0.153 0.152 0.241 0.358 0.243 0.575l0.82 89.4c2e-3 0.218-0.083 0.427-0.235 0.582-0.153 0.155-0.36 0.244-0.578 0.246h-7e-3z"/>
  <path d="m250.99 205.12-8.603 2.324-3.626-88.208-92.524-18.405c-0.091-0.016-0.18-0.038-0.268-0.066-0.711-0.202-1.332-0.64-1.761-1.2412l12.634-3.2697 3.714 0.7381 87.792 17.459c0.462 0.091 0.898 0.281 1.28 0.557 0.381 0.275 0.698 0.63 0.93 1.04 0.273 0.476 0.426 88.504 0.432 89.072z"/>
 </g>
 <path d="m154.99 166.44c-0.102 0-0.204-0.011-0.304-0.034l-28.456-6.424c-0.355-0.08-0.665-0.299-0.859-0.608-0.195-0.308-0.259-0.681-0.179-1.037s0.299-0.665 0.607-0.861c0.308-0.195 0.681-0.259 1.037-0.18l28.456 6.424c0.331 0.075 0.622 0.269 0.818 0.544 0.197 0.276 0.285 0.615 0.247 0.951-0.037 0.337-0.197 0.648-0.449 0.874-0.253 0.226-0.579 0.351-0.918 0.351z" fill="#fff"/>
 <path d="m266.12 22.841c-0.01-1.5468-0.567-3.0401-1.573-4.2152-1.006-1.175-2.396-1.9559-3.923-2.2041l-93.957-15.425c-0.901-0.14912-1.823-0.10814-2.707 0.12028l-22.019 5.6921-12.634 3.2698-23.316 6.0256c-1.407 0.3655-2.654 1.1876-3.543 2.3375-0.89 1.1499-1.373 2.5625-1.374 4.0163v76.988c7e-3 1.5004 0.526 2.9534 1.471 4.1204 0.944 1.166 2.258 1.975 3.725 2.293l95.701 20.358c0.45 0.096 0.908 0.144 1.368 0.142 0.669 1e-3 1.335-0.1 1.974-0.301l56.858-17.951c1.342-0.419 2.513-1.259 3.34-2.395 0.827-1.137 1.265-2.51 1.249-3.915l-0.64-78.957z" fill="#fff"/>
 <path d="m165.6 6.6504c-0.069-8e-5 -0.137 0.00873-0.203 0.02619l-57.969 14.988c-0.176 0.0455-0.332 0.1481-0.443 0.2916s-0.171 0.3199-0.171 0.5014v76.987c0 0.1875 0.065 0.3691 0.183 0.5149s0.282 0.2468 0.465 0.2868l95.701 20.357c0.139 0.029 0.283 0.022 0.418-0.021l56.859-17.95c0.168-0.053 0.314-0.158 0.417-0.3s0.158-0.313 0.155-0.489l-0.637-78.956c-1e-3 -0.1932-0.071-0.3796-0.197-0.5263-0.125-0.1467-0.299-0.2442-0.49-0.2752l-93.956-15.424c-0.044-7e-3 -0.088-0.01056-0.132-0.01067z" fill="#FF6D2E"/>
 <g fill="#331E14">
  <path d="m266.12 22.841c-0.01-1.5468-0.567-3.0401-1.573-4.2152-1.006-1.175-2.396-1.9559-3.923-2.2041l-93.957-15.425c-0.901-0.14912-1.823-0.10814-2.707 0.12028l-22.019 5.6921-12.634 3.2698-23.316 6.0256c-1.407 0.3655-2.654 1.1876-3.543 2.3375-0.89 1.1499-1.373 2.5625-1.374 4.0163v76.988c7e-3 1.5004 0.526 2.9534 1.471 4.1204 0.944 1.166 2.258 1.975 3.725 2.293l95.701 20.358c0.45 0.096 0.908 0.144 1.368 0.142 0.669 1e-3 1.335-0.1 1.974-0.301l56.858-17.951c1.342-0.419 2.513-1.259 3.34-2.395 0.827-1.137 1.265-2.51 1.249-3.915l-0.64-78.957zm-4.441 83.703-56.858 17.951c-0.811 0.253-1.674 0.294-2.505 0.12l-95.707-20.357c-1.099-0.239-2.085-0.847-2.792-1.721-0.708-0.875-1.097-1.965-1.102-3.0903v-76.988c1e-3 -1.0076 0.311-1.9908 0.888-2.817 0.577-0.8261 1.393-1.4556 2.339-1.8034 0.15-0.0564 0.304-0.1038 0.459-0.1422l24.667-6.3755 14.586-3.7729 18.716-4.8391c0.401-0.1071 0.815-0.16044 1.231-0.1586 0.267-1e-4 0.534 0.02185 0.798 0.06562l93.957 15.425c0.756 0.124 1.472 0.4223 2.093 0.8712 0.621 0.4488 1.129 1.0361 1.484 1.7151 0.354 0.6885 0.542 1.4509 0.546 2.2254l0.64 78.957c0.012 1.054-0.316 2.084-0.936 2.937-0.619 0.853-1.497 1.483-2.504 1.798z"/>
  <path d="m263.93 20.627c-0.064 0.0419-0.134 0.0733-0.208 0.093l-27.636 7.4691-33.072 8.9346c-0.07 0.0171-0.142 0.0263-0.214 0.0273-0.049-9e-4 -0.098-0.0045-0.147-0.0109l-98.666-17.984-0.328-0.0601c-0.214-0.04-0.403-0.1631-0.527-0.3423-0.123-0.1792-0.17-0.3999-0.131-0.614 0.039-0.214 0.161-0.4038 0.34-0.5279 0.178-0.1241 0.399-0.1724 0.613-0.1343l1.986 0.3608 96.828 17.65 21.089-5.6976 11.797-3.1878 27.21-7.3543 0.432-0.1148c0.187-0.0493 0.385-0.0314 0.56 0.0506 0.175 0.0819 0.315 0.2227 0.397 0.3977 0.021 0.0418 0.038 0.0858 0.049 0.1312 0.045 0.172 0.033 0.3539-0.034 0.5185-0.067 0.1647-0.185 0.3032-0.338 0.3947z"/>
  <path d="m203.62 126.55c-0.216 0-0.423-0.085-0.577-0.237-0.154-0.153-0.241-0.359-0.243-0.576l-0.82-89.4c-2e-3 -0.2175 0.082-0.4269 0.235-0.5821 0.152-0.1552 0.36-0.2435 0.577-0.2455h8e-3c0.216-1e-4 0.424 0.0853 0.577 0.2375 0.154 0.1522 0.241 0.359 0.243 0.5752l0.821 89.4c2e-3 0.218-0.083 0.427-0.235 0.583-0.153 0.155-0.361 0.243-0.578 0.245h-8e-3z"/>
  <path d="m236.08 115.68-8.603 2.323-3.627-88.208-92.523-18.405c-0.091-0.016-0.18-0.0379-0.268-0.0656-0.711-0.2023-1.332-0.64-1.761-1.2412l12.634-3.2698 3.713 0.73815 87.793 17.459c0.462 0.0911 0.898 0.281 1.28 0.5566 0.381 0.2756 0.698 0.6303 0.93 1.04 0.273 0.4757 0.426 88.504 0.432 89.073z"/>
 </g>
 <path d="m140.08 76.996c-0.102-2e-4 -0.204-0.0116-0.304-0.0341l-28.456-6.4239c-0.356-0.0808-0.665-0.2994-0.86-0.6079-0.194-0.3086-0.259-0.6817-0.178-1.0376 0.08-0.3558 0.298-0.6653 0.607-0.8604 0.308-0.195 0.681-0.2598 1.037-0.18l28.456 6.4239c0.33 0.0746 0.622 0.2684 0.818 0.5441 0.197 0.2758 0.285 0.6144 0.247 0.9509-0.037 0.3366-0.197 0.6475-0.45 0.8735-0.252 0.226-0.578 0.3511-0.917 0.3515z" fill="#fff"/>
</svg>
